<?xml version="1.0" standalone="no"?>
<!DOCTYPE svg PUBLIC "-//W3C//DTD SVG 20010904//EN"
 "http://www.w3.org/TR/2001/REC-SVG-20010904/DTD/svg10.dtd">
<svg version="1.0" xmlns="http://www.w3.org/2000/svg"
 width="645.000000pt" height="645.000000pt" viewBox="0 0 645.000000 645.000000"
 preserveAspectRatio="xMidYMid meet">
<metadata>
Created by potrace 1.14, written by Peter Selinger 2001-2017
</metadata>
<g transform="translate(0.000000,645.000000) scale(0.100000,-0.100000)"
fill="#000000" stroke="none">
<path d="M3009 6445 c-2 -1 -37 -6 -78 -9 -243 -22 -479 -71 -711 -149 -69
-22 -127 -42 -130 -42 -3 -1 -16 -6 -30 -12 -14 -6 -50 -21 -80 -33 -30 -12
-61 -26 -67 -32 -7 -6 -13 -8 -13 -5 0 11 -272 -133 -387 -205 -355 -222 -678
-528 -925 -878 -10 -14 -31 -43 -47 -66 -86 -122 -239 -410 -301 -571 -17 -43
-35 -87 -40 -98 -25 -55 -107 -333 -126 -430 -4 -22 -8 -42 -9 -45 -1 -3 -5
-25 -9 -50 -5 -25 -10 -54 -12 -65 -2 -11 -6 -40 -9 -65 -3 -25 -8 -54 -10
-65 -19 -95 -27 -565 -12 -695 15 -134 18 -158 28 -215 58 -346 171 -690 322
-975 56 -107 150 -264 159 -268 4 -2 8 -8 8 -13 0 -5 23 -42 52 -81 332 -467
745 -817 1253 -1062 246 -119 558 -220 804 -262 18 -3 42 -7 51 -9 10 -2 40
-7 67 -11 26 -3 55 -8 64 -9 111 -20 517 -27 703 -12 55 4 102 9 105 11 3 2
29 6 56 10 50 6 88 12 135 21 14 3 36 7 50 10 130 24 373 96 537 160 130 51
443 204 443 217 0 4 5 8 11 8 25 0 283 178 413 285 406 333 745 794 937 1273
96 238 181 550 205 752 3 30 8 57 9 60 9 16 20 243 20 420 -1 224 -12 371 -40
525 -75 411 -218 797 -418 1125 -46 76 -176 267 -205 301 -11 13 -53 65 -94
114 -174 211 -443 450 -677 603 -64 41 -132 85 -151 98 -83 54 -487 244 -530
249 -3 1 -48 15 -100 32 -214 71 -372 108 -575 133 -49 6 -101 14 -115 17 -28
5 -526 14 -531 8z"/>
</g>
</svg>
